<svg version="1.1" xmlns="http://www.w3.org/2000/svg" xmlns:xlink="http://www.w3.org/1999/xlink" width="493.5" height="371.9" viewBox="0,0,493.5,371.9"><g transform="translate(7.2,4.4)"><g data-paper-data="{&quot;isPaintingLayer&quot;:true}" fill-rule="nonzero" stroke-linecap="butt" stroke-linejoin="miter" stroke-miterlimit="10" stroke-dasharray="" stroke-dashoffset="0" style="mix-blend-mode: normal"><path d="M-3.7,-0.9h486.5v364.9h-486.5z" fill="#ffe7c0" stroke="#ffe7c0" stroke-width="7"/><path d="M239.5,43.7c39.9,0 76.1,15.4 102.3,40.4c26.2,24.9 42.4,59.4 42.4,97.4c0,38 -16.2,72.5 -42.4,97.4c-26.2,24.9 -62.4,40.4 -102.3,40.4c-39.9,0 -76.1,-15.4 -102.3,-40.4c-26.2,-24.9 -42.4,-59.4 -42.4,-97.4c0,-38 16.2,-72.5 42.4,-97.4c26.2,-25 62.4,-40.4 102.3,-40.4z" fill="#fffcf9" stroke="#ffffff" stroke-width="5"/><text transform="translate(95.43125,195.47275) scale(1.34108,1.34108)" font-size="40" xml:space="preserve" fill="#af0000" fill-rule="nonzero" stroke="none" stroke-width="1" stroke-linecap="butt" stroke-linejoin="miter" stroke-miterlimit="10" stroke-dasharray="" stroke-dashoffset="0" font-family="Sans Serif" font-weight="normal" text-anchor="start" style="mix-blend-mode: normal"><tspan x="0" dy="0">Game Over</tspan></text></g></g></svg>